# xmcd
# Copyright (C) 1995-1998 Ti Kan
#
# Track frame offsets:
#       150
#       22730
#       33644
#       52461
#       71098
#       87174
#       106925
#       117902
#       135808
#       163050
#       185276
#       204828
#       219847
#
# Disc length: 3301 seconds
#
# Revision: 0
# Processed by: cddbd v1.5.2PL0 Copyright (c) Steve Scherf et al.
# Submitted via: CD-Import v1.0
#
DISCID=aa0ce30d
DTITLE=Trummer - Fürne Königin
DYEAR=11
DGENRE=
TTITLE0=Was Me Mitnimmt
TTITLE1=Paralleluniversum
TTITLE2=Gschyd Wär Anders
TTITLE3=Mittwuchnamittag
TTITLE4=Vergiss Mi Nid
TTITLE5=Mini Böse Jahr
TTITLE6=Neon Liecht Meitschi
TTITLE7=Fürne Königin
TTITLE8=Ballade Vom Meitschi Ufem Meer
TTITLE9=Ds Läbe An Sich
TTITLE10=Gar Nid So Schwär
TTITLE11=Bevor Dr Herbscht Chunnt
TTITLE12=Hol Mi Zrügg
EXTD=
EXTT0=
EXTT1=
EXTT2=
EXTT3=
EXTT4=
EXTT5=
EXTT6=
EXTT7=
EXTT8=
EXTT9=
EXTT10=
EXTT11=
EXTT12=
PLAYORDER=
